/* XPM */
static char * xdx_xpm[] = {
"16 16 17 1",
" 	c None",
".	c #00FFFF",
"+	c #000000",
"@	c #00FF00",
"#	c #007F00",
"$	c #007F7F",
"%	c #191919",
"&	c #00007F",
"*	c #B2B2B2",
"=	c #FFFFFF",
"-	c #CCCCCC",
";	c #999999",
">	c #333333",
",	c #4C4C4C",
"'	c #E5E5E5",
")	c #666667",
"!	c #7F7F7F",
"     ++++++     ",
"   ++#===..++   ",
"  +####...###+  ",
" +..####.#####+ ",
" +..####.#####+ ",
"+...###...##.##+",
"+...#....##..##+",
"+.####.....###.+",
"&.####..#####..+",
"+.###...####...%",
"++##....####..++",
" +#.....####..+ ",
" ++......##..++ ",
"  ++........+%  ",
"   +++=====++   ",
"     +%++%+     "};
