/* XPM */
static char * xdx_xpm[] = {
"16 16 109 2",
"  	c None",
". 	c #010203",
"+ 	c #18333D",
"@ 	c #4A6C6B",
"# 	c #687F85",
"$ 	c #586A73",
"% 	c #060607",
"& 	c #05090C",
"* 	c #2A8F54",
"= 	c #34CC5B",
"- 	c #2CD638",
"; 	c #297931",
"> 	c #4F757E",
", 	c #627C83",
"' 	c #4A8E9C",
") 	c #245B59",
"! 	c #0A141A",
"~ 	c #29934E",
"{ 	c #227048",
"] 	c #47AAB2",
"^ 	c #54BDD7",
"/ 	c #1B5938",
"( 	c #2CD53B",
"_ 	c #36BB6A",
": 	c #0B1C1B",
"< 	c #4598B1",
"[ 	c #348080",
"} 	c #26A33C",
"| 	c #2CD538",
"1 	c #2ED440",
"2 	c #296C62",
"3 	c #50BFC9",
"4 	c #0E2C1D",
"5 	c #288752",
"6 	c #37BA6D",
"7 	c #295A6A",
"8 	c #2B855E",
"9 	c #1C7332",
"0 	c #308271",
"a 	c #53BDD6",
"b 	c #266D5A",
"c 	c #27BE31",
"d 	c #2CD539",
"e 	c #296F61",
"f 	c #4EADC9",
"g 	c #34807F",
"h 	c #195A32",
"i 	c #49A8BB",
"j 	c #1A5A33",
"k 	c #258847",
"l 	c #1F723A",
"m 	c #268848",
"n 	c #2CBA48",
"o 	c #2B7D62",
"p 	c #18313E",
"q 	c #347F83",
"r 	c #1F723B",
"s 	c #49A8BD",
"t 	c #1E5744",
"u 	c #236F49",
"v 	c #207141",
"w 	c #2E836A",
"x 	c #174135",
"y 	c #1D5A3C",
"z 	c #1C3E48",
"A 	c #288654",
"B 	c #296C64",
"C 	c #367E89",
"D 	c #27BD34",
"E 	c #228A3C",
"F 	c #1D8E26",
"G 	c #1E5A45",
"H 	c #2C8560",
"I 	c #2E836C",
"J 	c #347F84",
"K 	c #1F723C",
"L 	c #2E8468",
"M 	c #183B3F",
"N 	c #377E8E",
"O 	c #25A338",
"P 	c #2BBA46",
"Q 	c #256E53",
"R 	c #52BDD0",
"S 	c #1E5745",
"T 	c #258945",
"U 	c #298655",
"V 	c #53BDD5",
"W 	c #1D653A",
"X 	c #236F4A",
"Y 	c #286D5D",
"Z 	c #2D8466",
"` 	c #4AA8BF",
" .	c #27884E",
"..	c #22A62B",
"+.	c #3E939F",
"@.	c #1F5747",
"#.	c #48A9B7",
"$.	c #286C5F",
"%.	c #387E8F",
"&.	c #3E6975",
"*.	c #9BA4A6",
"=.	c #FFFFFF",
"-.	c #AAAAAA",
";.	c #96A0A4",
">.	c #426772",
",.	c #253D49",
"'.	c #5D757C",
").	c #435F68",
"!.	c #1B3340",
"          . + @ # $ %           ",
"      & * = - ; > , ' ) &       ",
"    ! ~ - - - { ] ^ / ( _ :     ",
"  & < [ } | - 1 2 3 4 5 - 6 &   ",
"  7 ^ ^ 8 - 9 0 a b c - - d e   ",
". f ^ ^ g h i ^ ^ j k l m n o . ",
"p ^ q m r 8 s ^ ^ t u v w x - y ",
"z ^ A - - - B ^ C D - - - E F G ",
"z ^ H - - c I ^ J c - - - K L M ",
"p ^ N O P Q R ^ a S T d - U ^ p ",
". f V W X ^ ^ ^ ^ ^ N ( - Y f . ",
"  7 a Z Y ^ ^ ^ ^ ^ `  ...+.7   ",
"  & < @.#.^ ^ ^ ^ ^ ^ $.u < &   ",
"    ! < ^ ^ ` %.%.` ^ ^ < !     ",
"      & 7 &.*.=.=.-.;.>.&       ",
"          . ,.'.).!..           "};
