/* XPM */
static char * xdx_xpm[] = {
"16 16 17 1",
" 	c None",
".	c #00ffff",
"+	c #000000",
"@	c #00ff00",
"#	c #007f00",
"$	c #007f7f",
"%	c #191919",
"&	c #00007f",
"*	c #b2b2b2",
"=	c #ffffff",
"-	c #cccccc",
";	c #999999",
">	c #333333",
",	c #4c4c4c",
"'	c #e5e5e5",
")	c #666667",
"!	c #7f7f00",
"     ++++++     ",
"   ++#===..++   ",
"  +####...###+  ",
" +..####.#####+ ",
" +..####.#####+ ",
"+...###...##.##+",
"+...#....##..##+",
"+.####.....###.+",
"+.####..#####..+",
"+.###...####...%",
"++##....####..++",
" +#.....####..+ ",
" ++......##..++ ",
"  ++........+%  ",
"   +++=====++   ",
"     +%++%+     "};
