/* XPM */
static char * xdx_xpm[] = {
"16 16 91 1",
" 	c None",
".	c #010203",
"+	c #17323C",
"@	c #3D4E48",
"#	c #575757",
"$	c #4F5457",
"%	c #060707",
"&	c #05090C",
"*	c #1A6C2B",
"=	c #30C251",
"-	c #2CD638",
";	c #18771F",
">	c #557880",
",	c #527780",
"'	c #40859A",
")	c #1F454F",
"!	c #0A141A",
"~	c #207D37",
"{	c #1C742F",
"]	c #4BA8BF",
"^	c #54BDD7",
"/	c #185C2B",
"(	c #2DD53C",
"_	c #2EA856",
":	c #091814",
"<	c #4598B1",
"[	c #387E8F",
"}	c #22A62C",
"|	c #2ED540",
"1	c #2A6C66",
"2	c #50BFC9",
"3	c #112B28",
"4	c #218C35",
"5	c #2FA759",
"6	c #295A6A",
"7	c #268949",
"8	c #33817D",
"9	c #54BDD6",
"0	c #266F54",
"a	c #27BE32",
"b	c #2CD63A",
"c	c #225E4F",
"d	c #4EADC9",
"e	c #34817E",
"f	c #1B5A38",
"g	c #145E1D",
"h	c #238B3B",
"i	c #197721",
"j	c #258A45",
"k	c #2DBA4B",
"l	c #29755A",
"m	c #18313E",
"n	c #2B865A",
"o	c #1D7433",
"p	c #2C865E",
"q	c #235558",
"r	c #217142",
"s	c #367F87",
"t	c #134524",
"u	c #12441E",
"v	c #1C3E48",
"w	c #228C37",
"x	c #2B6B68",
"y	c #218C33",
"z	c #1D8F25",
"A	c #15442B",
"B	c #357F86",
"C	c #112A2A",
"D	c #387E8E",
"E	c #22A62B",
"F	c #28BD38",
"G	c #52BED0",
"H	c #21574E",
"I	c #53BDD5",
"J	c #166B1C",
"K	c #1C752D",
"L	c #2DD53B",
"M	c #1F8D2D",
"N	c #4193A7",
"O	c #4AA8BD",
"P	c #217240",
"Q	c #466670",
"R	c #A8A9A9",
"S	c #FFFFFF",
"T	c #AAAAAA",
"U	c #93999C",
"V	c #36505A",
"W	c #223741",
"X	c #4E5355",
"Y	c #3A4B50",
"Z	c #1A333F",
"     .+@#$%     ",
"   &*=-;>,')&   ",
"  !~---{]^/(_:  ",
" &<[}--|1234-5& ",
" 6^^7-{890a--bc ",
".d^^ef]^^ghijkl.",
"m^enop]^^qr0st-u",
"v^w---x^[a---yzA",
"v^7--ae^[a---rBC",
"m^DEF1G^9Hzb-n^m",
".dIJK^^^^^[L-1d.",
" 6^n1^^^^^]M}N6 ",
" &<HO^^^^^^0P<& ",
"  !<^^][[]^^<!  ",
"   &6QRSSTUV&   ",
"     .WXYZ.     "};
